<mxfile host="65bd71144e">
    <diagram name="StrÃ¡nka-1" id="4uzDfmDRNhCInwvL7MMY">
        <mxGraphModel dx="573" dy="326" grid="1" gridSize="10" guides="1" tooltips="1" connect="1" arrows="1" fold="1" page="1" pageScale="1" pageWidth="827" pageHeight="1169" math="0" shadow="0">
            <root>
                <mxCell id="0"/>
                <mxCell id="1" parent="0"/>
                <mxCell id="WGg2hFcMqNZgMdjpp8JN-4" value="Create account" style="edgeStyle=orthogonalEdgeStyle;rounded=0;orthogonalLoop=1;jettySize=auto;html=1;" parent="1" source="WGg2hFcMqNZgMdjpp8JN-2" target="WGg2hFcMqNZgMdjpp8JN-3" edge="1">
                    <mxGeometry relative="1" as="geometry">
                        <Array as="points">
                            <mxPoint x="420" y="100"/>
                            <mxPoint x="420" y="100"/>
                        </Array>
                    </mxGeometry>
                </mxCell>
                <mxCell id="WGg2hFcMqNZgMdjpp8JN-7" value="Login" style="edgeStyle=orthogonalEdgeStyle;rounded=0;orthogonalLoop=1;jettySize=auto;html=1;" parent="1" source="WGg2hFcMqNZgMdjpp8JN-2" target="WGg2hFcMqNZgMdjpp8JN-6" edge="1">
                    <mxGeometry relative="1" as="geometry">
                        <Array as="points">
                            <mxPoint x="280" y="160"/>
                            <mxPoint x="280" y="160"/>
                        </Array>
                    </mxGeometry>
                </mxCell>
                <mxCell id="WGg2hFcMqNZgMdjpp8JN-2" value="Login screen" style="rounded=1;whiteSpace=wrap;html=1;" parent="1" vertex="1">
                    <mxGeometry x="240" y="80" width="120" height="60" as="geometry"/>
                </mxCell>
                <mxCell id="WGg2hFcMqNZgMdjpp8JN-5" value="Back" style="edgeStyle=orthogonalEdgeStyle;rounded=0;orthogonalLoop=1;jettySize=auto;html=1;" parent="1" source="WGg2hFcMqNZgMdjpp8JN-3" target="WGg2hFcMqNZgMdjpp8JN-2" edge="1">
                    <mxGeometry relative="1" as="geometry">
                        <Array as="points">
                            <mxPoint x="420" y="120"/>
                            <mxPoint x="420" y="120"/>
                        </Array>
                    </mxGeometry>
                </mxCell>
                <mxCell id="WGg2hFcMqNZgMdjpp8JN-8" value="Register" style="edgeStyle=orthogonalEdgeStyle;rounded=0;orthogonalLoop=1;jettySize=auto;html=1;" parent="1" source="WGg2hFcMqNZgMdjpp8JN-3" target="WGg2hFcMqNZgMdjpp8JN-6" edge="1">
                    <mxGeometry relative="1" as="geometry">
                        <Array as="points">
                            <mxPoint x="540" y="170"/>
                            <mxPoint x="320" y="170"/>
                        </Array>
                    </mxGeometry>
                </mxCell>
                <mxCell id="WGg2hFcMqNZgMdjpp8JN-3" value="Register screen" style="rounded=1;whiteSpace=wrap;html=1;" parent="1" vertex="1">
                    <mxGeometry x="480" y="80" width="120" height="60" as="geometry"/>
                </mxCell>
                <mxCell id="WGg2hFcMqNZgMdjpp8JN-10" value="Menu" style="edgeStyle=orthogonalEdgeStyle;rounded=0;orthogonalLoop=1;jettySize=auto;html=1;" parent="1" source="WGg2hFcMqNZgMdjpp8JN-6" target="WGg2hFcMqNZgMdjpp8JN-9" edge="1">
                    <mxGeometry relative="1" as="geometry">
                        <Array as="points">
                            <mxPoint x="280" y="300"/>
                            <mxPoint x="280" y="300"/>
                        </Array>
                    </mxGeometry>
                </mxCell>
                <mxCell id="WGg2hFcMqNZgMdjpp8JN-25" value="Quick chat" style="edgeStyle=orthogonalEdgeStyle;rounded=0;orthogonalLoop=1;jettySize=auto;html=1;" parent="1" source="WGg2hFcMqNZgMdjpp8JN-6" target="WGg2hFcMqNZgMdjpp8JN-22" edge="1">
                    <mxGeometry relative="1" as="geometry">
                        <Array as="points">
                            <mxPoint x="420" y="220"/>
                            <mxPoint x="420" y="220"/>
                        </Array>
                    </mxGeometry>
                </mxCell>
                <mxCell id="WGg2hFcMqNZgMdjpp8JN-31" value="Add/edit map object" style="edgeStyle=orthogonalEdgeStyle;rounded=0;orthogonalLoop=1;jettySize=auto;html=1;" parent="1" source="WGg2hFcMqNZgMdjpp8JN-6" target="WGg2hFcMqNZgMdjpp8JN-30" edge="1">
                    <mxGeometry relative="1" as="geometry">
                        <Array as="points">
                            <mxPoint x="180" y="220"/>
                            <mxPoint x="180" y="220"/>
                        </Array>
                    </mxGeometry>
                </mxCell>
                <mxCell id="WGg2hFcMqNZgMdjpp8JN-6" value="Map screen" style="rounded=1;whiteSpace=wrap;html=1;" parent="1" vertex="1">
                    <mxGeometry x="240" y="200" width="120" height="60" as="geometry"/>
                </mxCell>
                <mxCell id="WGg2hFcMqNZgMdjpp8JN-12" value="Map" style="edgeStyle=orthogonalEdgeStyle;rounded=0;orthogonalLoop=1;jettySize=auto;html=1;" parent="1" source="WGg2hFcMqNZgMdjpp8JN-9" target="WGg2hFcMqNZgMdjpp8JN-6" edge="1">
                    <mxGeometry relative="1" as="geometry">
                        <Array as="points">
                            <mxPoint x="320" y="300"/>
                            <mxPoint x="320" y="300"/>
                        </Array>
                    </mxGeometry>
                </mxCell>
                <mxCell id="WGg2hFcMqNZgMdjpp8JN-20" style="edgeStyle=orthogonalEdgeStyle;rounded=0;orthogonalLoop=1;jettySize=auto;html=1;" parent="1" source="WGg2hFcMqNZgMdjpp8JN-9" target="WGg2hFcMqNZgMdjpp8JN-19" edge="1">
                    <mxGeometry relative="1" as="geometry">
                        <Array as="points">
                            <mxPoint x="420" y="340"/>
                            <mxPoint x="420" y="340"/>
                        </Array>
                    </mxGeometry>
                </mxCell>
                <mxCell id="WGg2hFcMqNZgMdjpp8JN-35" style="edgeStyle=orthogonalEdgeStyle;rounded=0;orthogonalLoop=1;jettySize=auto;html=1;" parent="1" source="WGg2hFcMqNZgMdjpp8JN-9" target="WGg2hFcMqNZgMdjpp8JN-34" edge="1">
                    <mxGeometry relative="1" as="geometry">
                        <Array as="points">
                            <mxPoint x="180" y="330"/>
                            <mxPoint x="180" y="300"/>
                        </Array>
                    </mxGeometry>
                </mxCell>
                <mxCell id="WGg2hFcMqNZgMdjpp8JN-36" style="edgeStyle=orthogonalEdgeStyle;rounded=0;orthogonalLoop=1;jettySize=auto;html=1;" parent="1" source="WGg2hFcMqNZgMdjpp8JN-9" target="WGg2hFcMqNZgMdjpp8JN-33" edge="1">
                    <mxGeometry relative="1" as="geometry">
                        <Array as="points">
                            <mxPoint x="180" y="370"/>
                            <mxPoint x="180" y="400"/>
                        </Array>
                    </mxGeometry>
                </mxCell>
                <mxCell id="WGg2hFcMqNZgMdjpp8JN-43" style="edgeStyle=orthogonalEdgeStyle;rounded=0;orthogonalLoop=1;jettySize=auto;html=1;" parent="1" source="WGg2hFcMqNZgMdjpp8JN-9" target="WGg2hFcMqNZgMdjpp8JN-13" edge="1">
                    <mxGeometry relative="1" as="geometry">
                        <Array as="points">
                            <mxPoint x="300" y="480"/>
                        </Array>
                    </mxGeometry>
                </mxCell>
                <mxCell id="WGg2hFcMqNZgMdjpp8JN-44" style="edgeStyle=orthogonalEdgeStyle;rounded=0;orthogonalLoop=1;jettySize=auto;html=1;" parent="1" source="WGg2hFcMqNZgMdjpp8JN-9" target="WGg2hFcMqNZgMdjpp8JN-14" edge="1">
                    <mxGeometry relative="1" as="geometry">
                        <Array as="points">
                            <mxPoint x="300" y="480"/>
                        </Array>
                    </mxGeometry>
                </mxCell>
                <mxCell id="WGg2hFcMqNZgMdjpp8JN-45" style="edgeStyle=orthogonalEdgeStyle;rounded=0;orthogonalLoop=1;jettySize=auto;html=1;" parent="1" source="WGg2hFcMqNZgMdjpp8JN-9" target="WGg2hFcMqNZgMdjpp8JN-39" edge="1">
                    <mxGeometry relative="1" as="geometry">
                        <Array as="points">
                            <mxPoint x="300" y="560"/>
                        </Array>
                    </mxGeometry>
                </mxCell>
                <mxCell id="WGg2hFcMqNZgMdjpp8JN-47" style="edgeStyle=orthogonalEdgeStyle;rounded=0;orthogonalLoop=1;jettySize=auto;html=1;" parent="1" source="WGg2hFcMqNZgMdjpp8JN-9" target="WGg2hFcMqNZgMdjpp8JN-46" edge="1">
                    <mxGeometry relative="1" as="geometry">
                        <Array as="points">
                            <mxPoint x="300" y="560"/>
                        </Array>
                    </mxGeometry>
                </mxCell>
                <mxCell id="WGg2hFcMqNZgMdjpp8JN-9" value="Main menu screen" style="rounded=1;whiteSpace=wrap;html=1;" parent="1" vertex="1">
                    <mxGeometry x="240" y="320" width="120" height="60" as="geometry"/>
                </mxCell>
                <mxCell id="WGg2hFcMqNZgMdjpp8JN-13" value="Map settings screen" style="rounded=1;whiteSpace=wrap;html=1;" parent="1" vertex="1">
                    <mxGeometry x="140" y="440" width="120" height="60" as="geometry"/>
                </mxCell>
                <mxCell id="WGg2hFcMqNZgMdjpp8JN-14" value="Session connection screen" style="rounded=1;whiteSpace=wrap;html=1;" parent="1" vertex="1">
                    <mxGeometry x="340" y="440" width="120" height="60" as="geometry"/>
                </mxCell>
                <mxCell id="WGg2hFcMqNZgMdjpp8JN-21" value="Back" style="edgeStyle=orthogonalEdgeStyle;rounded=0;orthogonalLoop=1;jettySize=auto;html=1;" parent="1" source="WGg2hFcMqNZgMdjpp8JN-19" target="WGg2hFcMqNZgMdjpp8JN-9" edge="1">
                    <mxGeometry relative="1" as="geometry">
                        <Array as="points">
                            <mxPoint x="420" y="360"/>
                            <mxPoint x="420" y="360"/>
                        </Array>
                    </mxGeometry>
                </mxCell>
                <mxCell id="WGg2hFcMqNZgMdjpp8JN-23" value="Contact&lt;br&gt;selected" style="edgeStyle=orthogonalEdgeStyle;rounded=0;orthogonalLoop=1;jettySize=auto;html=1;" parent="1" source="WGg2hFcMqNZgMdjpp8JN-19" target="WGg2hFcMqNZgMdjpp8JN-22" edge="1">
                    <mxGeometry relative="1" as="geometry">
                        <Array as="points">
                            <mxPoint x="560" y="290"/>
                            <mxPoint x="560" y="290"/>
                        </Array>
                    </mxGeometry>
                </mxCell>
                <mxCell id="WGg2hFcMqNZgMdjpp8JN-19" value="Contacts menu screen" style="rounded=1;whiteSpace=wrap;html=1;" parent="1" vertex="1">
                    <mxGeometry x="480" y="320" width="120" height="60" as="geometry"/>
                </mxCell>
                <mxCell id="WGg2hFcMqNZgMdjpp8JN-24" value="Back" style="edgeStyle=orthogonalEdgeStyle;rounded=0;orthogonalLoop=1;jettySize=auto;html=1;" parent="1" source="WGg2hFcMqNZgMdjpp8JN-22" target="WGg2hFcMqNZgMdjpp8JN-19" edge="1">
                    <mxGeometry relative="1" as="geometry">
                        <Array as="points">
                            <mxPoint x="520" y="290"/>
                            <mxPoint x="520" y="290"/>
                        </Array>
                    </mxGeometry>
                </mxCell>
                <mxCell id="3" value="Back" style="edgeStyle=orthogonalEdgeStyle;html=1;" edge="1" parent="1" source="WGg2hFcMqNZgMdjpp8JN-22" target="WGg2hFcMqNZgMdjpp8JN-6">
                    <mxGeometry relative="1" as="geometry">
                        <Array as="points">
                            <mxPoint x="420" y="240"/>
                            <mxPoint x="420" y="240"/>
                        </Array>
                    </mxGeometry>
                </mxCell>
                <mxCell id="WGg2hFcMqNZgMdjpp8JN-22" value="Chat screen" style="rounded=1;whiteSpace=wrap;html=1;" parent="1" vertex="1">
                    <mxGeometry x="480" y="200" width="120" height="60" as="geometry"/>
                </mxCell>
                <mxCell id="WGg2hFcMqNZgMdjpp8JN-29" style="edgeStyle=orthogonalEdgeStyle;rounded=0;orthogonalLoop=1;jettySize=auto;html=1;" parent="1" source="WGg2hFcMqNZgMdjpp8JN-28" target="WGg2hFcMqNZgMdjpp8JN-2" edge="1">
                    <mxGeometry relative="1" as="geometry"/>
                </mxCell>
                <mxCell id="WGg2hFcMqNZgMdjpp8JN-28" value="" style="ellipse;html=1;shape=endState;fillColor=#000000;strokeColor=default;" parent="1" vertex="1">
                    <mxGeometry x="285" width="30" height="30" as="geometry"/>
                </mxCell>
                <mxCell id="WGg2hFcMqNZgMdjpp8JN-32" value="Back/Save" style="edgeStyle=orthogonalEdgeStyle;rounded=0;orthogonalLoop=1;jettySize=auto;html=1;" parent="1" source="WGg2hFcMqNZgMdjpp8JN-30" target="WGg2hFcMqNZgMdjpp8JN-6" edge="1">
                    <mxGeometry relative="1" as="geometry">
                        <Array as="points">
                            <mxPoint x="180" y="240"/>
                            <mxPoint x="180" y="240"/>
                        </Array>
                    </mxGeometry>
                </mxCell>
                <mxCell id="WGg2hFcMqNZgMdjpp8JN-30" value="Map object&lt;br&gt;add/edit form" style="rounded=1;whiteSpace=wrap;html=1;" parent="1" vertex="1">
                    <mxGeometry y="200" width="120" height="60" as="geometry"/>
                </mxCell>
                <mxCell id="WGg2hFcMqNZgMdjpp8JN-37" value="" style="edgeStyle=orthogonalEdgeStyle;rounded=0;orthogonalLoop=1;jettySize=auto;html=1;" parent="1" source="WGg2hFcMqNZgMdjpp8JN-33" target="WGg2hFcMqNZgMdjpp8JN-9" edge="1">
                    <mxGeometry x="0.3333" relative="1" as="geometry">
                        <Array as="points">
                            <mxPoint x="170" y="380"/>
                            <mxPoint x="170" y="350"/>
                        </Array>
                        <mxPoint as="offset"/>
                    </mxGeometry>
                </mxCell>
                <mxCell id="WGg2hFcMqNZgMdjpp8JN-33" value="Symbol types management grid" style="rounded=1;whiteSpace=wrap;html=1;" parent="1" vertex="1">
                    <mxGeometry y="360" width="120" height="60" as="geometry"/>
                </mxCell>
                <mxCell id="WGg2hFcMqNZgMdjpp8JN-38" value="Back" style="edgeStyle=orthogonalEdgeStyle;rounded=0;orthogonalLoop=1;jettySize=auto;html=1;" parent="1" source="WGg2hFcMqNZgMdjpp8JN-34" target="WGg2hFcMqNZgMdjpp8JN-9" edge="1">
                    <mxGeometry x="0.3333" relative="1" as="geometry">
                        <Array as="points">
                            <mxPoint x="170" y="320"/>
                            <mxPoint x="170" y="350"/>
                        </Array>
                        <mxPoint as="offset"/>
                    </mxGeometry>
                </mxCell>
                <mxCell id="WGg2hFcMqNZgMdjpp8JN-34" value="Message template management grid" style="rounded=1;whiteSpace=wrap;html=1;" parent="1" vertex="1">
                    <mxGeometry y="280" width="120" height="60" as="geometry"/>
                </mxCell>
                <mxCell id="WGg2hFcMqNZgMdjpp8JN-41" style="edgeStyle=orthogonalEdgeStyle;rounded=0;orthogonalLoop=1;jettySize=auto;html=1;" parent="1" source="WGg2hFcMqNZgMdjpp8JN-39" target="WGg2hFcMqNZgMdjpp8JN-9" edge="1">
                    <mxGeometry relative="1" as="geometry">
                        <Array as="points">
                            <mxPoint x="280" y="540"/>
                        </Array>
                    </mxGeometry>
                </mxCell>
                <mxCell id="WGg2hFcMqNZgMdjpp8JN-39" value="User settings screen" style="rounded=1;whiteSpace=wrap;html=1;" parent="1" vertex="1">
                    <mxGeometry x="140" y="520" width="120" height="60" as="geometry"/>
                </mxCell>
                <mxCell id="WGg2hFcMqNZgMdjpp8JN-40" value="Back" style="edgeStyle=orthogonalEdgeStyle;rounded=0;orthogonalLoop=1;jettySize=auto;html=1;" parent="1" source="WGg2hFcMqNZgMdjpp8JN-13" target="WGg2hFcMqNZgMdjpp8JN-9" edge="1">
                    <mxGeometry relative="1" as="geometry">
                        <Array as="points">
                            <mxPoint x="280" y="460"/>
                        </Array>
                        <mxPoint as="offset"/>
                    </mxGeometry>
                </mxCell>
                <mxCell id="WGg2hFcMqNZgMdjpp8JN-48" style="edgeStyle=orthogonalEdgeStyle;rounded=0;orthogonalLoop=1;jettySize=auto;html=1;" parent="1" source="WGg2hFcMqNZgMdjpp8JN-46" target="WGg2hFcMqNZgMdjpp8JN-9" edge="1">
                    <mxGeometry relative="1" as="geometry">
                        <Array as="points">
                            <mxPoint x="320" y="540"/>
                        </Array>
                    </mxGeometry>
                </mxCell>
                <mxCell id="WGg2hFcMqNZgMdjpp8JN-46" value="System settings screen" style="rounded=1;whiteSpace=wrap;html=1;" parent="1" vertex="1">
                    <mxGeometry x="340" y="520" width="120" height="60" as="geometry"/>
                </mxCell>
                <mxCell id="WGg2hFcMqNZgMdjpp8JN-42" value="Back" style="edgeStyle=orthogonalEdgeStyle;rounded=0;orthogonalLoop=1;jettySize=auto;html=1;" parent="1" source="WGg2hFcMqNZgMdjpp8JN-14" target="WGg2hFcMqNZgMdjpp8JN-9" edge="1">
                    <mxGeometry relative="1" as="geometry">
                        <Array as="points">
                            <mxPoint x="320" y="460"/>
                        </Array>
                    </mxGeometry>
                </mxCell>
            </root>
        </mxGraphModel>
    </diagram>
</mxfile>